<svg width="48" height="74" viewBox="0 0 48 74" fill="none" xmlns="http://www.w3.org/2000/svg">
<path d="M27.4014 33.6086C27.9767 36.6732 28.6188 39.7054 29.3063 42.7442C29.9938 45.783 30.7437 48.7952 31.5592 51.8174C31.7667 52.5858 31.9602 53.3079 32.1956 54.1108C32.3276 54.5322 32.46 54.9587 32.6008 55.3687L33.0607 56.5689C33.6945 58.0924 34.421 59.5715 35.2357 60.9967C36.0235 62.3949 36.8698 63.7422 37.7748 65.0385C38.6748 66.3413 39.6384 67.5938 40.6617 68.7907L43.2745 66.8641C42.038 64.1485 40.7569 61.3788 39.7023 58.6366C39.1722 57.2631 38.6876 55.8961 38.2933 54.5369L38.0254 53.5362L37.8097 52.5626L37.359 50.3424C36.1742 44.3325 35.0229 38.2509 33.724 32.2457L27.4014 33.6086Z" fill="#FFB573"/>
<path d="M26.5124 29.6476C24.0143 33.0373 26.4814 45.5397 26.4814 45.5397L36.5664 39.0962C36.0936 36.7338 35.506 34.3976 34.806 32.097C33.7568 28.4038 28.9645 26.357 26.5124 29.6476Z" fill="#6BBCFF"/>
<path opacity="0.3" d="M26.5124 29.6476C24.0143 33.0373 26.4814 45.5397 26.4814 45.5397L36.5664 39.0962C36.0936 36.7338 35.506 34.3976 34.806 32.097C33.7568 28.4038 28.9645 26.357 26.5124 29.6476Z" fill="white"/>
<path d="M42.1229 65.3289L46.0142 68.5591L42.3221 71.8486C42.3221 71.8486 39.0105 69.7658 39.923 66.6327L42.1229 65.3289Z" fill="#FFB573"/>
<path d="M46.2204 72.686L45.2856 73.0381C44.9963 73.1491 44.6828 73.1727 44.3799 73.1063C44.0769 73.04 43.7964 72.8862 43.5693 72.6621L42.322 71.8485L46.0141 68.559L47.0526 70.0512C47.1902 70.2773 47.2783 70.5328 47.3103 70.7988C47.3423 71.0647 47.3174 71.3343 47.2375 71.5875C47.1575 71.8406 47.0246 72.0708 46.8485 72.261C46.6724 72.4512 46.4578 72.5965 46.2204 72.686Z" fill="#FFB573"/>
<path d="M9.15378 31.8877C11.7035 48.132 9.92559 63.9782 10.0963 67.4219L32.8904 67.5146C36.4013 48.13 34.2445 35.5895 33.0284 30.744C32.86 30.058 32.5146 29.4333 32.0311 28.9406C31.5475 28.4479 30.9451 28.1067 30.2916 27.9555C29.8951 27.8639 29.4537 27.771 28.9826 27.6807C28.3645 27.5612 27.6975 27.4513 27.0018 27.3545C26.6184 27.2987 26.226 27.2543 25.8288 27.2103C22.5841 26.9976 19.3324 26.9825 16.0899 27.1649C15.4799 27.1925 14.8619 27.242 14.2591 27.2954C13.6564 27.3488 13.1524 27.3935 12.6369 27.4761L12.1972 27.5151C11.721 27.5798 11.2631 27.7455 10.8504 28.0021C10.4377 28.2587 10.0788 28.6012 9.79489 29.009C9.51101 29.4169 9.30798 29.8819 9.19785 30.3764C9.08772 30.8709 9.07273 31.3849 9.15378 31.8877Z" fill="#6BBCFF"/>
<path opacity="0.4" d="M9.15378 31.8877C11.7035 48.132 9.92559 63.9782 10.0963 67.4219L32.8904 67.5146C36.4013 48.13 34.2445 35.5895 33.0284 30.744C32.86 30.058 32.5146 29.4333 32.0311 28.9406C31.5475 28.4479 30.9451 28.1067 30.2916 27.9555C29.8951 27.8639 29.4537 27.771 28.9826 27.6807C28.3645 27.5612 27.6975 27.4513 27.0018 27.3545C26.6184 27.2987 26.226 27.2543 25.8288 27.2103C22.5841 26.9976 19.3324 26.9825 16.0899 27.1649C15.4799 27.1925 14.8619 27.242 14.2591 27.2954C13.6564 27.3488 13.1524 27.3935 12.6369 27.4761L12.1972 27.5151C11.721 27.5798 11.2631 27.7455 10.8504 28.0021C10.4377 28.2587 10.0788 28.6012 9.79489 29.009C9.51101 29.4169 9.30798 29.8819 9.19785 30.3764C9.08772 30.8709 9.07273 31.3849 9.15378 31.8877Z" fill="white"/>
<path opacity="0.3" d="M10.0374 39.2236L13.4314 38.5269C13.1066 40.7852 12.0223 42.8351 10.3776 44.2998C10.301 42.6485 10.1848 40.9426 10.0374 39.2236Z" fill="#6BBCFF"/>
<path d="M16.9924 15.6052C17.6286 18.9073 18.2798 24.9645 16.1143 27.163C17.8213 28.9497 20.0529 31.0385 23.7543 31.17C27.4557 31.3015 26.7899 28.6198 25.8019 27.1918C22.322 26.3014 22.3888 23.5707 22.9781 21.0049L16.9924 15.6052Z" fill="#FFB573"/>
<path d="M24.061 34.7388C24.1009 35.1894 24.3301 35.5282 24.5574 35.508C24.7846 35.4879 24.9295 35.1001 24.8851 34.6552C24.8407 34.2103 24.616 33.8659 24.3942 33.8908C24.1723 33.9157 24.0166 34.2939 24.061 34.7388Z" fill="white"/>
<path d="M24.3507 38.4095C24.3556 38.8579 24.5471 39.2211 24.7762 39.2219C25.0053 39.2228 25.1817 38.8533 25.1769 38.4049C25.172 37.9565 24.9755 37.5937 24.7464 37.5929C24.5173 37.5921 24.3409 37.9615 24.3507 38.4095Z" fill="white"/>
<path opacity="0.2" d="M19.4336 17.8072L22.9779 20.9995C22.8311 21.5956 22.7351 22.205 22.6911 22.8203C21.3585 22.6163 19.5228 21.0627 19.3726 19.5922C19.2914 18.9971 19.312 18.3924 19.4336 17.8072V17.8072Z" fill="black"/>
<path d="M28.1198 7.37924C28.1198 7.37924 25.2778 6.26865 22.8018 6.87351C19.6511 9.52894 23.0453 10.9708 25.357 15.1436C28.0368 16.221 27.0101 14.9179 27.0101 14.9179C27.0101 14.9179 30.5504 12.2755 28.1198 7.37924Z" fill="#263238"/>
<path d="M16.5868 10.6299C16.8786 15.1031 16.8331 17.7369 18.979 20.0392C22.2137 23.5018 27.4118 21.473 28.3856 17.009C29.2646 12.9918 28.6413 6.35125 24.499 4.5585C23.5868 4.15864 22.5957 4.01137 21.6198 4.13067C20.6439 4.24997 19.7156 4.63187 18.9229 5.24014C18.1302 5.84841 17.4995 6.66285 17.0906 7.60615C16.6818 8.54945 16.5084 9.5903 16.5868 10.6299V10.6299Z" fill="#FFB573"/>
<path d="M20.2645 6.83973C20.2645 6.83973 17.7762 5.00076 15.229 4.91489C11.5316 6.62601 14.4795 8.93119 15.7228 13.5789C18.0604 15.3467 17.3768 13.8125 17.3768 13.8125C17.3768 13.8125 21.4726 12.214 20.2645 6.83973Z" fill="#263238"/>
<path d="M19.5054 7.43495C20.6886 8.31231 26.399 10.1562 29.527 7.07508C31.3579 5.26003 30.6604 1.37722 27.6713 0.855243C27.9345 1.4656 27.1692 3.45026 23.901 2.41968C20.7974 1.44843 14.3153 1.68481 15.0572 5.84356C15.7991 10.0023 19.5054 7.43495 19.5054 7.43495Z" fill="#263238"/>
<path d="M16.1518 4.88095C16.1518 4.88095 14.3949 4.16003 13.7724 2.97952C13.2107 5.29466 15.2133 5.6981 16.1518 4.88095Z" fill="#263238"/>
<path d="M14.7123 15.5536C14.9966 16.0275 15.3657 16.4382 15.7986 16.7623C16.2315 17.0865 16.7196 17.3175 17.2349 17.4423C18.6133 17.7691 19.2134 16.4486 18.7562 15.1108C18.3413 13.9119 17.1272 12.2927 15.782 12.565C14.4368 12.8374 14.0207 14.3792 14.7123 15.5536Z" fill="#FFB573"/>
<path d="M22.9986 11.9044C23.001 12.2685 23.1865 12.5636 23.4107 12.5649C23.6349 12.5662 23.8178 12.2701 23.8154 11.9059C23.813 11.5418 23.6275 11.2467 23.4033 11.2454C23.1791 11.2441 22.9962 11.5402 22.9986 11.9044Z" fill="#263238"/>
<path d="M26.8836 11.9141C26.886 12.2783 27.0715 12.5734 27.2957 12.5747C27.5199 12.5759 27.7028 12.2798 27.7004 11.9157C27.698 11.5515 27.5125 11.2564 27.2883 11.2552C27.0641 11.2539 26.8812 11.55 26.8836 11.9141Z" fill="#263238"/>
<path d="M25.6514 12.1129C26.0703 13.2274 26.6308 14.2775 27.3171 15.2339C26.7114 15.8157 25.6774 15.5535 25.6774 15.5535L25.6514 12.1129Z" fill="#ED893E"/>
<path d="M22.5895 15.6056C22.9707 15.5964 23.3505 15.6689 23.7061 15.8189C24.0616 15.9689 24.3857 16.1932 24.6586 16.4784C24.6789 16.4972 24.6916 16.5235 24.6941 16.5518C24.6966 16.5801 24.6887 16.6082 24.6721 16.6303C24.6539 16.6505 24.6293 16.6629 24.603 16.6653C24.5766 16.6676 24.5503 16.6597 24.5288 16.643C24.2188 16.3272 23.8436 16.0926 23.4337 15.9583C23.0238 15.8239 22.5908 15.7936 22.1698 15.8698C22.1439 15.8723 22.118 15.8643 22.0972 15.8476C22.0764 15.8309 22.0621 15.8066 22.0572 15.7795C22.0546 15.7654 22.0547 15.751 22.0576 15.737C22.0604 15.7231 22.0659 15.7099 22.0737 15.6983C22.0816 15.6868 22.0916 15.677 22.1031 15.6697C22.1146 15.6624 22.1275 15.6577 22.1409 15.6559C22.2887 15.6257 22.4388 15.6088 22.5895 15.6056V15.6056Z" fill="#263238"/>
<path d="M23.3737 9.45271C23.4087 9.45934 23.4405 9.479 23.4632 9.50814C23.4836 9.52599 23.5005 9.54792 23.5129 9.57266C23.5253 9.5974 23.533 9.62445 23.5354 9.65225C23.5379 9.68004 23.5351 9.70801 23.5273 9.73455C23.5194 9.76108 23.5066 9.78564 23.4897 9.80679C23.2722 10.0548 23.0006 10.2425 22.6983 10.354C22.3959 10.4654 22.0718 10.4971 21.7537 10.4464C21.7277 10.4415 21.7028 10.431 21.6806 10.4156C21.6584 10.4001 21.6394 10.3801 21.6248 10.3567C21.6101 10.3332 21.6001 10.3069 21.5953 10.2793C21.5906 10.2517 21.5912 10.2235 21.5971 10.1963C21.6016 10.1686 21.6112 10.1423 21.6254 10.1187C21.6397 10.0952 21.6583 10.075 21.6801 10.0593C21.7019 10.0436 21.7265 10.0327 21.7524 10.0273C21.7784 10.0218 21.8052 10.022 21.8312 10.0277V10.0277C22.0832 10.0636 22.339 10.0349 22.577 9.94399C22.8151 9.85304 23.0284 9.70253 23.199 9.50515C23.222 9.48224 23.2498 9.46553 23.2801 9.45641C23.3105 9.44729 23.3426 9.44602 23.3737 9.45271V9.45271Z" fill="#263238"/>
<path d="M27.1046 9.24368C27.1366 9.23703 27.1697 9.23885 27.201 9.24897C27.2323 9.25909 27.2608 9.27721 27.2841 9.30171C27.4584 9.499 27.6742 9.64981 27.9136 9.74158C28.153 9.83334 28.409 9.86342 28.6603 9.82929C28.7105 9.82345 28.7612 9.83764 28.8024 9.86909C28.8436 9.90055 28.8725 9.94701 28.8833 9.99944C28.8942 10.0519 28.8863 10.1065 28.8611 10.1527C28.836 10.1989 28.7954 10.2333 28.7473 10.2493C28.4306 10.299 28.1064 10.2664 27.8025 10.1545C27.4986 10.0426 27.224 9.85455 27.0024 9.60655C26.9831 9.58646 26.9678 9.56257 26.9573 9.53628C26.9468 9.50998 26.9413 9.48179 26.9411 9.45334C26.9409 9.42489 26.946 9.39673 26.9561 9.37049C26.9663 9.34425 26.9812 9.32046 27.0001 9.30047C27.0291 9.27146 27.0654 9.25177 27.1046 9.24368V9.24368Z" fill="#263238"/>
<path d="M9.40535 31.0737C8.96142 31.6834 8.60888 32.2004 8.2386 32.7983C7.86832 33.3961 7.51361 33.945 7.16664 34.525C6.46822 35.6905 5.81752 36.8887 5.19477 38.1215C3.88185 40.6535 2.85832 43.3445 2.14559 46.1383C1.96912 46.9112 1.83738 47.6953 1.7511 48.4862C1.72428 48.6892 1.71367 48.9066 1.69719 49.1141L1.67563 49.4328L1.68677 49.5585C1.69513 49.6529 1.70349 49.7472 1.6822 49.8441C1.6868 50.0353 1.70371 50.2261 1.7328 50.4152C1.84684 51.0739 2.11218 51.6943 2.50531 52.2214C2.7633 52.5699 3.0673 52.8773 3.40778 53.1342C3.84881 53.4624 4.32772 53.7289 4.83242 53.9268C5.21834 54.0838 5.61251 54.2164 6.01286 54.3238C6.71149 54.51 7.4206 54.6465 8.13545 54.7325C9.46474 54.9034 10.8024 54.9807 12.1395 54.9639C13.4427 54.963 14.744 54.883 16.0371 54.7241L16.1554 51.3394C13.7852 50.7203 11.3374 50.1821 9.16038 49.4403C8.62119 49.2557 8.10037 49.0537 7.64964 48.856C7.45245 48.7654 7.26042 48.6626 7.0746 48.5478C6.92204 48.4557 6.82289 48.3483 6.86828 48.3549C6.95903 48.4098 7.03844 48.4836 7.10163 48.5718C7.30082 48.8366 7.43318 49.1503 7.4861 49.483C7.49585 49.593 7.5056 49.7031 7.51488 49.8079L7.52928 49.9703L7.53206 50.0017L7.52928 49.9703L7.55888 49.7987C7.57832 49.6808 7.58833 49.569 7.61671 49.4398C7.71999 48.9256 7.85129 48.4185 8.00997 47.9211C8.34635 46.826 8.75417 45.7576 9.23048 44.7238C9.71569 43.6247 10.2684 42.5565 10.8507 41.4858C11.433 40.415 12.0549 39.3408 12.6831 38.2818L13.649 36.7071L14.6151 35.1904L9.40535 31.0737Z" fill="#FFB573"/>
<path d="M12.1395 27.5362C8.27203 27.9475 4.01457 36.9955 4.01457 36.9955L12.5848 43.2963C12.5848 43.2963 16.2902 38.865 17.3857 34.818C18.5785 30.4087 16.841 27.0404 12.1395 27.5362Z" fill="#6BBCFF"/>
<path opacity="0.4" d="M12.1395 27.5362C8.27203 27.9475 4.01457 36.9955 4.01457 36.9955L12.5848 43.2963C12.5848 43.2963 16.2902 38.865 17.3857 34.818C18.5785 30.4087 16.841 27.0404 12.1395 27.5362Z" fill="white"/>
<path d="M16.5074 26.2566C16.5074 26.2566 17.865 29.046 23.9141 31.1715C22.8349 32.0856 22.208 34.3959 22.208 34.3959C22.208 34.3959 14.3301 31.6932 14.8723 26.9665C15.3763 26.6367 15.9286 26.3969 16.5074 26.2566V26.2566Z" fill="white"/>
<path d="M25.9063 34.1051C25.9063 34.1051 25.2205 31.9849 23.8987 31.1727C24.5829 30.5206 25.6818 28.48 25.201 26.8751C25.6802 26.873 26.1578 26.9445 26.619 27.0874C26.619 27.0874 28.8356 30.524 25.9063 34.1051Z" fill="white"/>
<path d="M18.6123 58.1132C18.761 58.0977 18.9009 58.0331 19.0122 57.9285C19.1236 57.8239 19.2007 57.6846 19.2329 57.5302L27.683 22.2358C27.7319 22.0424 27.706 21.8355 27.6112 21.6607C27.5163 21.4859 27.3602 21.3575 27.1771 21.3037C26.9941 21.2499 26.7991 21.2751 26.6351 21.3738C26.4711 21.4725 26.3515 21.6366 26.3026 21.83L17.8558 57.1611C17.8327 57.2567 17.8277 57.3565 17.841 57.4546C17.8544 57.5527 17.8859 57.6472 17.9338 57.7328C17.9816 57.8183 18.0448 57.8932 18.1198 57.9531C18.1947 58.013 18.2799 58.0567 18.3705 58.0818C18.4493 58.1053 18.5308 58.1159 18.6123 58.1132V58.1132Z" fill="#263238"/>
<path d="M26.5221 27.0989C21.8855 25.8255 19.2782 19.9042 20.6987 13.8734C22.1191 7.84252 27.0294 3.98584 31.6661 5.25924C36.3028 6.53264 38.91 12.4539 37.4896 18.4848C36.0691 24.5156 31.1588 28.3723 26.5221 27.0989Z" fill="#263238"/>
<path d="M26.2387 26.8229C21.791 25.5817 19.3596 19.6731 20.808 13.6258C22.2564 7.57842 27.036 3.68226 31.4837 4.92348C35.9313 6.1647 38.3627 12.0733 36.9144 18.1206C35.466 24.168 30.6863 28.0641 26.2387 26.8229Z" fill="#6BBCFF"/>
<path d="M34.3345 17.3902C34.6317 17.3565 34.9176 17.2535 35.1715 17.0886C35.4255 16.9237 35.6413 16.7009 35.8036 16.4363C35.8167 16.4134 35.8254 16.388 35.829 16.3614C35.8326 16.3349 35.8311 16.3078 35.8246 16.2817C35.8181 16.2557 35.8068 16.2312 35.7912 16.2098C35.7756 16.1885 35.7562 16.1706 35.734 16.1573C35.6896 16.1292 35.6369 16.1204 35.5869 16.1328C35.5369 16.1451 35.4935 16.1775 35.466 16.2233C35.2786 16.5175 35.0094 16.7423 34.6951 16.8667C34.3809 16.9912 34.037 17.0093 33.7105 16.9186C33.3841 16.8278 33.0911 16.6326 32.8716 16.3598C32.6521 16.0869 32.517 15.7497 32.4846 15.3943C32.4824 15.3394 32.4601 15.2872 32.4223 15.2491C32.3844 15.211 32.3342 15.19 32.2823 15.1905C32.2564 15.1906 32.2308 15.1963 32.2071 15.2071C32.1834 15.2179 32.1621 15.2337 32.1443 15.2535C32.1266 15.2733 32.1128 15.2967 32.1038 15.3223C32.0948 15.348 32.0908 15.3753 32.0919 15.4027C32.122 15.8501 32.2861 16.277 32.5602 16.6212C32.8344 16.9655 33.2042 17.2091 33.6159 17.3166C33.8498 17.3867 34.0932 17.4116 34.3345 17.3902V17.3902Z" fill="white"/>
<path d="M26.1653 15.1093C26.4623 15.0745 26.7477 14.9711 27.0015 14.8063C27.2554 14.6414 27.4714 14.4192 27.6344 14.1553C27.6596 14.1088 27.6665 14.0535 27.6535 14.0013C27.6404 13.9491 27.6086 13.9042 27.5649 13.8763C27.5428 13.8621 27.5183 13.8526 27.4928 13.8484C27.4673 13.8443 27.4413 13.8456 27.4164 13.8522C27.3915 13.8588 27.3681 13.8707 27.3476 13.8871C27.3272 13.9034 27.3101 13.924 27.2973 13.9476C27.1088 14.2413 26.8387 14.4654 26.5239 14.5891C26.2091 14.7129 25.8649 14.7304 25.5383 14.6392C25.2117 14.5481 24.9185 14.3527 24.6988 14.0797C24.4791 13.8067 24.3435 13.4694 24.3105 13.1138C24.31 13.0864 24.3045 13.0593 24.294 13.034C24.2835 13.0088 24.2684 12.986 24.2496 12.967C24.2307 12.948 24.2085 12.9332 24.1842 12.9234C24.1599 12.9136 24.134 12.909 24.1082 12.91C24.0825 12.9101 24.0572 12.9158 24.0338 12.9266C24.0104 12.9375 23.9893 12.9533 23.972 12.9731C23.9546 12.9929 23.9413 13.0164 23.9329 13.0419C23.9244 13.0675 23.921 13.0947 23.9228 13.1218C23.9524 13.5685 24.1158 13.995 24.389 14.3393C24.6621 14.6836 25.031 14.9276 25.4418 15.0361C25.6774 15.1056 25.9224 15.1304 26.1653 15.1093Z" fill="white"/>
<path d="M30.8683 21.5996C30.9183 21.5953 30.9646 21.5712 30.9981 21.5319C31.0316 21.4927 31.0497 21.4414 31.0487 21.3882C30.997 20.7672 30.7644 20.1766 30.3832 19.6983C30.002 19.2199 29.4909 18.8775 28.921 18.7186C28.351 18.5596 27.7503 18.5919 27.2021 18.8111C26.6539 19.0302 26.1854 19.4253 25.8615 19.9415C25.8482 19.9648 25.8395 19.9907 25.8359 20.0177C25.8322 20.0446 25.8337 20.0722 25.8402 20.0986C25.8468 20.1251 25.8582 20.15 25.8739 20.1718C25.8895 20.1937 25.9091 20.212 25.9315 20.2258C25.9764 20.2532 26.0295 20.2611 26.0795 20.2478C26.1294 20.2345 26.1723 20.2011 26.199 20.1545C26.4796 19.715 26.8824 19.3795 27.3523 19.1938C27.8222 19.0082 28.3362 18.9815 28.8241 19.1175C29.312 19.2534 29.7499 19.5454 30.0778 19.9534C30.4057 20.3613 30.6077 20.8654 30.6561 21.3966C30.6582 21.4516 30.6806 21.5037 30.7184 21.5419C30.7562 21.58 30.8065 21.601 30.8584 21.6005L30.8683 21.5996Z" fill="white"/>
<path d="M35.2373 14.4798C35.2638 14.477 35.289 14.4666 35.3103 14.4499C35.3316 14.4331 35.3482 14.4106 35.3583 14.3846C35.3652 14.366 35.3686 14.3461 35.3682 14.326C35.3677 14.3059 35.3636 14.2861 35.3559 14.2676C35.3483 14.2491 35.3373 14.2324 35.3236 14.2184C35.3099 14.2044 35.2937 14.1934 35.276 14.186C34.586 13.8335 33.9709 13.3344 33.4691 12.72C32.9674 12.1056 32.5899 11.3892 32.3604 10.6159C32.3557 10.596 32.3472 10.5774 32.3356 10.561C32.3239 10.5446 32.3093 10.5309 32.2926 10.5205C32.2759 10.5102 32.2574 10.5035 32.2383 10.5008C32.2192 10.4982 32.1998 10.4996 32.1813 10.505C32.1443 10.5172 32.1135 10.5442 32.0953 10.5803C32.0771 10.6165 32.073 10.6589 32.0839 10.6984C32.3191 11.5196 32.7155 12.2804 33.2469 12.9305C33.7783 13.5807 34.4326 14.1055 35.1667 14.4702C35.1894 14.4786 35.2135 14.4818 35.2373 14.4798V14.4798Z" fill="white"/>
<path d="M26.2552 11.7323C27.5772 11.6286 28.8173 11.0324 29.7559 10.0492C29.7831 10.0202 29.7981 9.98084 29.7978 9.93977C29.7974 9.89871 29.7816 9.85931 29.754 9.83025C29.7263 9.80119 29.689 9.78485 29.6502 9.78481C29.6115 9.78478 29.5744 9.80107 29.5473 9.83008C29.0013 10.3887 28.3502 10.8193 27.6355 11.0944C26.9208 11.3696 26.1583 11.4833 25.3966 11.4282C25.3778 11.4257 25.3587 11.4272 25.3404 11.4325C25.3222 11.4379 25.3052 11.447 25.2903 11.4593C25.2754 11.4717 25.2631 11.487 25.2538 11.5045C25.2446 11.522 25.2388 11.5412 25.2366 11.5612C25.2345 11.5812 25.2361 11.6014 25.2413 11.6208C25.2465 11.6402 25.2553 11.6583 25.2671 11.6742C25.2789 11.6901 25.2935 11.7033 25.3101 11.7133C25.3267 11.7232 25.345 11.7296 25.3638 11.7321C25.6605 11.7635 25.9591 11.7635 26.2552 11.7323V11.7323Z" fill="white"/>
<path d="M22.6943 17.4076C22.9005 17.3723 23.0903 17.2687 23.2365 17.1116C23.3826 16.9545 23.4777 16.7519 23.5081 16.5329C23.5601 15.9164 23.4048 15.2981 23.0696 14.7869C23.0471 14.7552 23.0143 14.7334 22.9777 14.7259C22.9411 14.7184 22.9033 14.7257 22.8718 14.7463C22.3825 15.0797 22.0218 15.5867 21.8533 16.1778V16.1778C21.7874 16.4267 21.8172 16.6942 21.9362 16.922C22.0552 17.1498 22.2539 17.3195 22.4889 17.3941C22.5565 17.4094 22.6257 17.4139 22.6943 17.4076V17.4076ZM22.9083 15.1022C23.1542 15.511 23.2637 15.9943 23.219 16.474C23.225 16.5666 23.2109 16.6592 23.1776 16.7447C23.1443 16.8301 23.0929 16.9061 23.0272 16.9668C22.9615 17.0274 22.8834 17.0711 22.7989 17.0944C22.7143 17.1177 22.6257 17.1201 22.5397 17.1013C22.4538 17.0825 22.3729 17.043 22.3033 16.9859C22.2337 16.9288 22.1773 16.8557 22.1384 16.7722C22.0995 16.6886 22.0792 16.5969 22.079 16.5041C22.0789 16.4113 22.0988 16.32 22.1374 16.2371C22.2634 15.7798 22.5292 15.3811 22.8935 15.1035L22.9083 15.1022Z" fill="white"/>
<path d="M22.3861 53.269L22.0788 54.2415C21.9821 54.5472 21.8079 54.8181 21.5751 55.0249C21.3424 55.2317 21.0601 55.3664 20.7587 55.4146L18.53 55.7757L18.7733 50.3732L21.1606 50.9591C21.39 51.0151 21.6063 51.1215 21.7952 51.2715C21.9842 51.4215 22.1416 51.6116 22.2572 51.8295C22.3728 52.0475 22.444 52.2883 22.4662 52.5363C22.4884 52.7843 22.4611 53.034 22.3861 53.269Z" fill="#FFB573"/>
<path d="M14.5244 51.2511L18.7615 50.3477L18.5181 55.7501C18.5181 55.7501 14.5619 56.0584 13.9825 53.9025L14.5244 51.2511Z" fill="#FFB573"/>
</svg>
